# xmcd CD database file
#
# Track frame offsets:
#	150
#	12444
#	25830
#	38734
#	52338
#	66024
#	78199
#	91562
#	104573
#	117879
#	131973
#	145534
#	158373
#	170567
#
# Disc length: 2438 seconds
#
# Revision: 0
# Processed by: cddbd v1.4PL0 Copyright (c) Steve Scherf et al.
# Submitted via: CDex 1.51
#
DISCID=ae09840e
DTITLE=Men of Blues - Vol 2
DYEAR=1998
DGENRE=Blues
TTITLE0=Mississippi River Blues - Big Bill Broonzy
TTITLE1=Vicksburg Blues
TTITLE2=No. 2 - Little Brother Montgomery
TTITLE3=Sweet Sixteen - Walter Davis
TTITLE4=Someday Baby Blues - Sleepy John Estes
TTITLE5=Sweet Home Chicago - Robert Johnson
TTITLE6=Louise Blues - Johnnie "Geechie" Temple
TTITLE7=You Shouldn't Do That - Casey Bill Weldon
TTITLE8=Brother James - Big Joe Williams
TTITLE9=Lonesome Bedroom Blues - Curtis Jones
TTITLE10=Diggin' My Potatoes - Washboard Sam
TTITLE11=Bottle It up and Go - Tommy McClennan
TTITLE12=Key to the Highway - Jazz Gillum
TTITLE13=Gangster's Blues - Peetie Wheatstraw
EXTD=YEAR: 1998
EXTT0=
EXTT1=
EXTT2=
EXTT3=
EXTT4=
EXTT5=
EXTT6=
EXTT7=
EXTT8=
EXTT9=
EXTT10=
EXTT11=
EXTT12=
EXTT13=
PLAYORDER=
